<svg viewBox="0 0 1049 1049" fill="none" xmlns="http://www.w3.org/2000/svg">
<g clip-path="url(#clip0_47_22)">
<path d="M514.008 695.92L841.96 500.788L902.136 93.7681L514.008 239.371V695.92Z" fill="url(#paint0_linear_47_22)"/>
<path d="M131.125 93.7681L191.422 500.835L514.008 695.92V239.371L131.125 93.7681Z" fill="url(#paint1_linear_47_22)"/>
<path d="M514.008 239.381L131.125 93.7777L514.008 0L902.136 93.7777L514.008 239.381Z" fill="#25225E"/>
<path d="M714.425 565.082C689.072 590.694 639.605 588.216 607.057 561.721C574.429 535.177 567.925 497.226 589.825 475.044C601.325 464.204 664.551 410.087 712.945 348.103C764.051 288.099 800.32 220.22 820.561 227.593C840.311 233.88 840.37 319.924 810.447 399.2C783.995 479.763 727.563 553.561 714.425 565.082Z" fill="#3553BF"/>
<path d="M654.792 451.963C680.166 444.078 812.48 385.763 815.767 384.086C814.113 389.135 812.34 394.178 810.446 399.194C783.993 479.759 727.561 553.557 714.423 565.074C689.068 590.688 639.603 588.208 607.053 561.713C594.767 551.718 586.189 540.105 581.434 528.325C582.681 522.608 584.839 473.697 654.792 451.963Z" fill="#213FAB"/>
<path d="M738.149 632.613C703.927 646.332 659.797 625.158 641.488 588.508C623.126 551.786 633.566 514.616 663.148 502.715C678.334 497.207 759.468 471.922 830.443 433.769C903.043 398.468 965.482 350.301 980.794 364.775C996.126 378.067 959.046 456.718 897.488 517.727C838.547 581.238 755.127 627.107 738.149 632.613Z" fill="#5271E1"/>
<path d="M887.12 452.395C883.305 462.558 879.006 472.761 874.191 482.807C840.781 561.047 778.079 630.225 763.979 640.685C736.471 664.249 687.391 657.945 657.269 629.018C627.073 600.041 623.915 561.709 647.68 541.3C650.04 539.414 874.539 458.133 887.12 452.395Z" fill="#3553BF"/>
<path d="M711.038 693.421C673.845 692.886 642.646 656.683 641.717 616.195C640.773 575.62 666.351 545.637 698.518 546.061C714.771 546.824 799.829 554.704 881.149 546.947C962.724 542.412 1040.56 522.238 1048.32 541.318C1056.6 559.321 988.783 617.043 906.211 649.287C824.955 684.814 728.93 694.875 711.038 693.421Z" fill="#0086FF"/>
<path d="M334.574 565.082C359.929 590.694 409.393 588.216 441.943 561.721C474.569 535.177 481.073 497.226 459.173 475.042C447.675 464.204 384.447 410.087 336.055 348.103C284.947 288.099 248.68 220.22 228.437 227.593C208.69 233.88 208.629 319.924 238.551 399.2C265.003 479.763 321.437 553.563 334.574 565.082Z" fill="#3553BF"/>
<path d="M394.19 451.963C368.818 444.078 236.502 385.763 233.215 384.086C234.869 389.135 236.642 394.178 238.536 399.194C264.989 479.759 321.42 553.557 334.561 565.074C359.914 590.688 409.379 588.208 441.929 561.713C454.215 551.718 462.793 540.105 467.548 528.325C466.3 522.608 464.143 473.697 394.19 451.963Z" fill="#213FAB"/>
<path d="M310.842 632.613C345.066 646.33 389.196 625.158 407.507 588.508C425.869 551.786 415.427 514.614 385.843 502.713C370.661 497.205 289.525 471.92 218.55 433.769C145.951 398.466 83.5124 350.301 68.1994 364.775C52.866 378.067 89.9475 456.718 151.504 517.727C210.446 581.236 293.868 627.105 310.842 632.613Z" fill="#5271E1"/>
<path d="M159.422 452.395C163.236 462.556 167.537 472.759 172.351 482.807C205.762 561.047 268.463 630.223 282.565 640.683C310.073 664.245 359.151 657.941 389.272 629.014C419.468 600.037 422.626 561.705 398.862 541.296C396.502 539.41 172.002 458.133 159.422 452.395Z" fill="#3553BF"/>
<path d="M337.966 693.423C375.16 692.886 406.361 656.681 407.287 616.193C408.231 575.619 382.656 545.637 350.486 546.059C334.233 546.826 249.177 554.704 167.857 546.945C86.2796 542.408 8.44093 522.24 0.686156 541.318C-7.59517 559.321 60.2187 617.043 142.79 649.285C224.051 684.814 320.078 694.875 337.966 693.423Z" fill="#0086FF"/>
<path d="M786.1 644.759C786.1 780.716 668.977 798.723 524.501 798.723C380.025 798.723 262.902 780.714 262.902 644.759C262.902 508.802 380.021 381.185 524.499 381.185C668.977 381.185 786.1 508.802 786.1 644.759Z" fill="url(#paint2_linear_47_22)"/>
<path d="M474.464 447.42C452.109 454.671 432.517 465.925 416.229 480.868C409.878 486.694 399.716 486.573 393.522 480.596C387.333 474.62 387.465 465.055 393.813 459.229C413.519 441.154 437.13 427.568 463.993 418.848C472.377 416.13 481.529 420.315 484.405 428.206C488.282 438.826 476.776 446.669 474.464 447.42Z" fill="white"/>
<path d="M361.796 613.401C378.132 613.401 391.376 600.938 391.376 585.567C391.376 570.194 378.132 557.732 361.796 557.732C345.462 557.732 332.219 570.194 332.219 585.567C332.219 600.938 345.462 613.401 361.796 613.401Z" fill="#121212"/>
<path d="M690.876 613.401C707.21 613.401 720.454 600.938 720.454 585.565C720.454 570.192 707.21 557.732 690.876 557.732C674.541 557.732 661.297 570.192 661.297 585.565C661.297 600.938 674.541 613.401 690.876 613.401Z" fill="#121212"/>
<path d="M521.598 699.5C541.724 699.5 560.355 696.763 577.493 691.288C594.631 685.814 610.512 677.75 625.135 667.097L635.747 681.744C620.812 693.285 603.593 702.534 584.097 709.487C564.758 716.59 543.922 720.14 521.598 720.14C499.27 720.14 478.358 716.59 458.862 709.487C439.521 702.534 422.383 693.285 407.445 681.744L418.058 667.097C432.683 677.75 448.564 685.814 465.702 691.288C482.84 696.763 501.471 699.5 521.598 699.5Z" fill="#121212"/>
</g>
<path d="M383.099 919.951C383.099 934.176 380.549 946.6 375.45 957.226C370.533 967.852 363.157 976.163 353.322 982.162C343.67 987.988 331.833 990.902 317.809 990.902C304.332 990.902 292.769 987.988 283.116 982.162C273.463 976.336 265.997 968.109 260.715 957.483C255.616 946.857 253.066 934.347 253.066 919.951C253.066 897.672 258.895 880.276 270.55 867.766C282.388 855.256 298.505 849 318.902 849C332.743 849 344.399 851.999 353.869 857.997C363.521 863.824 370.806 872.05 375.723 882.676C380.64 893.302 383.099 905.726 383.099 919.951ZM269.184 919.951C269.184 937.432 273.1 951.571 280.93 962.368C288.761 972.994 301.054 978.306 317.809 978.306C334.746 978.306 347.131 972.994 354.961 962.368C362.975 951.571 366.981 937.432 366.981 919.951C366.981 908.64 365.342 898.614 362.064 889.874C358.786 881.134 353.596 874.279 346.493 869.308C339.39 864.338 330.102 861.853 318.629 861.853C302.057 861.853 289.672 866.995 281.477 877.278C273.281 887.56 269.184 901.785 269.184 919.951Z" fill="white"/>
<path d="M487.68 849C506.256 849 520.735 854.913 531.115 866.738C541.678 878.392 546.96 895.873 546.96 919.18C546.96 942.487 541.496 960.311 530.569 972.65C519.824 984.819 505.072 990.902 486.314 990.902C473.383 990.902 463.003 988.332 455.172 983.19C447.523 978.049 441.878 971.879 438.235 964.681H437.142C437.324 969.138 437.507 973.85 437.689 978.82C438.054 983.791 438.235 988.503 438.235 992.959V1049H422.664V851.571H435.503L437.416 877.278H438.235C441.878 869.736 447.615 863.139 455.445 857.483C463.459 851.828 474.203 849 487.68 849ZM485.495 861.853C469.469 861.853 457.631 866.652 449.982 876.249C442.333 885.675 438.417 899.386 438.235 917.38V919.951C438.235 939.488 441.968 954.141 449.435 963.91C457.084 973.508 468.739 978.306 484.402 978.306C499.335 978.306 510.809 973.078 518.822 962.625C526.836 952.171 530.842 937.603 530.842 918.923C530.842 900.585 527.018 886.532 519.369 876.764C511.901 866.824 500.611 861.853 485.495 861.853Z" fill="white"/>
<path d="M644.39 990.902C623.082 990.902 606.6 984.819 594.944 972.65C583.471 960.311 577.734 943.001 577.734 920.722C577.734 905.469 580.648 892.531 586.476 881.905C592.304 871.108 600.408 862.968 610.789 857.483C621.351 851.828 633.554 849 647.395 849C654.497 849 661.053 849.6 667.063 850.799C673.255 851.999 678.718 853.627 683.454 855.684L679.083 868.537C668.884 864.253 658.322 862.111 647.395 862.111C630.276 862.111 617.072 867.338 607.784 877.792C598.496 888.245 593.852 902.47 593.852 920.465C593.852 937.603 597.949 951.485 606.145 962.111C614.34 972.737 626.998 978.049 644.116 978.049C651.401 978.049 658.23 977.364 664.605 975.992C670.979 974.621 676.716 972.821 681.815 970.594V983.704C677.079 985.932 671.616 987.647 665.424 988.846C659.233 990.217 652.22 990.902 644.39 990.902Z" fill="white"/>
<path d="M775.674 849.257C783.323 849.257 789.879 850.029 795.342 851.571L793.157 864.939C790.244 864.254 787.33 863.739 784.415 863.396C781.502 863.053 778.406 862.882 775.127 862.882C761.652 862.882 750.998 867.509 743.166 876.764C735.517 885.847 731.692 898.014 731.692 913.268V988.332H716.121V851.571H729.234L730.873 877.278H731.692C735.335 869.566 740.799 862.968 748.083 857.484C755.55 851.999 764.747 849.257 775.674 849.257Z" fill="white"/>
<defs>
<linearGradient id="paint0_linear_47_22" x1="718.563" y1="380.047" x2="762.771" y2="21.5178" gradientUnits="userSpaceOnUse">
<stop stop-color="#837BFF"/>
<stop offset="1" stop-color="#5371DD"/>
</linearGradient>
<linearGradient id="paint1_linear_47_22" x1="241.27" y1="394.855" x2="342.804" y2="245.852" gradientUnits="userSpaceOnUse">
<stop stop-color="#0086FF"/>
<stop offset="1" stop-color="#5371DD"/>
</linearGradient>
<linearGradient id="paint2_linear_47_22" x1="524.501" y1="381.185" x2="524.501" y2="798.723" gradientUnits="userSpaceOnUse">
<stop stop-color="#93EAFF"/>
<stop offset="1" stop-color="#0086FF"/>
</linearGradient>
<clipPath id="clip0_47_22">
<rect width="1049" height="800" fill="white"/>
</clipPath>
</defs>
</svg>
