<svg viewBox="0 0 969 389" fill="none" xmlns="http://www.w3.org/2000/svg">
<path d="M235.199 338.391L385.263 243.508L412.798 45.5947L235.199 116.394V338.391Z" fill="url(#paint0_linear_24_25)"/>
<path d="M60 45.5947L87.5904 243.531L235.199 338.391V116.394L60 45.5947Z" fill="url(#paint1_linear_24_25)"/>
<path d="M235.199 116.399L60 45.5994L235.199 0L412.798 45.5994L235.199 116.399Z" fill="#25225E"/>
<path d="M326.905 274.771C315.304 287.225 292.669 286.02 277.776 273.137C262.846 260.23 259.87 241.776 269.891 230.99C275.153 225.719 304.084 199.405 326.228 169.265C349.613 140.088 366.209 107.082 375.471 110.667C384.508 113.724 384.535 155.563 370.843 194.111C358.739 233.285 332.917 269.169 326.905 274.771Z" fill="#3553BF"/>
<path d="M299.618 219.767C311.229 215.933 371.773 187.577 373.277 186.762C372.52 189.217 371.709 191.669 370.842 194.108C358.738 233.283 332.916 269.167 326.904 274.767C315.302 287.222 292.668 286.016 277.774 273.133C272.152 268.273 268.227 262.626 266.051 256.898C266.622 254.118 267.609 230.335 299.618 219.767Z" fill="#213FAB"/>
<path d="M337.761 307.608C322.102 314.279 301.909 303.983 293.531 286.162C285.129 268.306 289.906 250.232 303.442 244.445C310.391 241.767 347.516 229.472 379.993 210.92C413.213 193.755 441.784 170.334 448.79 177.372C455.806 183.835 438.839 222.079 410.671 251.745C383.701 282.627 345.53 304.931 337.761 307.608Z" fill="#5271E1"/>
<path d="M405.927 219.977C404.181 224.919 402.214 229.88 400.011 234.765C384.723 272.809 356.032 306.447 349.58 311.533C336.993 322.991 314.535 319.926 300.752 305.86C286.935 291.77 285.49 273.131 296.364 263.207C297.444 262.29 400.17 222.767 405.927 219.977Z" fill="#3553BF"/>
<path d="M325.355 337.176C308.336 336.916 294.06 319.312 293.635 299.625C293.203 279.895 304.907 265.316 319.626 265.522C327.063 265.893 365.984 269.725 403.194 265.953C440.521 263.748 476.137 253.938 479.686 263.216C483.475 271.97 452.445 300.037 414.662 315.716C377.481 332.991 333.542 337.883 325.355 337.176Z" fill="#0086FF"/>
<path d="M153.093 274.771C164.695 287.225 187.329 286.02 202.223 273.137C217.152 260.23 220.128 241.776 210.107 230.989C204.846 225.719 175.914 199.405 153.771 169.265C130.385 140.088 113.79 107.082 104.527 110.667C95.4912 113.724 95.4635 155.563 109.155 194.111C121.259 233.285 147.082 269.17 153.093 274.771Z" fill="#3553BF"/>
<path d="M180.374 219.767C168.764 215.933 108.219 187.577 106.715 186.762C107.472 189.217 108.283 191.669 109.15 194.108C121.254 233.283 147.076 269.167 153.089 274.767C164.69 287.222 187.324 286.016 202.218 273.133C207.84 268.273 211.765 262.626 213.941 256.898C213.37 254.118 212.383 230.335 180.374 219.767Z" fill="#213FAB"/>
<path d="M142.235 307.608C157.895 314.278 178.088 303.983 186.467 286.162C194.869 268.306 190.091 250.231 176.554 244.444C169.607 241.766 132.481 229.471 100.004 210.92C66.7843 193.754 38.2138 170.334 31.2069 177.372C24.1907 183.835 41.1584 222.079 69.3254 251.745C96.2961 282.626 134.468 304.93 142.235 307.608Z" fill="#5271E1"/>
<path d="M72.9473 219.977C74.6925 224.918 76.6606 229.879 78.8635 234.765C94.1515 272.809 122.842 306.446 129.295 311.532C141.882 322.989 164.339 319.924 178.122 305.858C191.939 291.768 193.384 273.129 182.51 263.205C181.43 262.288 78.7039 222.767 72.9473 219.977Z" fill="#3553BF"/>
<path d="M154.646 337.177C171.665 336.916 185.942 319.311 186.366 299.624C186.798 279.895 175.095 265.316 160.375 265.521C152.938 265.894 114.018 269.725 76.8079 265.952C39.4797 263.746 3.86239 253.939 0.31397 263.216C-3.47539 271.97 27.5548 300.037 65.3377 315.715C102.521 332.991 146.461 337.883 154.646 337.177Z" fill="#0086FF"/>
<path d="M359.703 313.514C359.703 379.623 306.11 388.379 240.001 388.379C173.892 388.379 120.299 379.622 120.299 313.514C120.299 247.405 173.89 185.351 240 185.351C306.11 185.351 359.703 247.405 359.703 313.514Z" fill="url(#paint2_linear_24_25)"/>
<path d="M217.105 217.558C206.876 221.084 197.911 226.556 190.458 233.822C187.552 236.655 182.902 236.596 180.068 233.69C177.236 230.784 177.296 226.133 180.201 223.3C189.218 214.511 200.022 207.905 212.314 203.665C216.15 202.343 220.338 204.378 221.654 208.215C223.428 213.379 218.163 217.193 217.105 217.558Z" fill="white"/>
<path d="M165.55 298.266C173.025 298.266 179.085 292.206 179.085 284.732C179.085 277.257 173.025 271.197 165.55 271.197C158.076 271.197 152.016 277.257 152.016 284.732C152.016 292.206 158.076 298.266 165.55 298.266Z" fill="#121212"/>
<path d="M316.131 298.266C323.605 298.266 329.665 292.206 329.665 284.731C329.665 277.256 323.605 271.197 316.131 271.197C308.656 271.197 302.596 277.256 302.596 284.731C302.596 292.206 308.656 298.266 316.131 298.266Z" fill="#121212"/>
<path d="M238.673 340.132C247.882 340.132 256.407 338.801 264.249 336.139C272.091 333.477 279.358 329.556 286.049 324.376L290.905 331.498C284.071 337.11 276.192 341.607 267.271 344.988C258.422 348.442 248.888 350.168 238.673 350.168C228.456 350.168 218.887 348.442 209.966 344.988C201.116 341.607 193.274 337.11 186.439 331.498L191.295 324.376C197.987 329.556 205.254 333.477 213.096 336.139C220.938 338.801 229.463 340.132 238.673 340.132Z" fill="#121212"/>
<path d="M567.68 66.6319C567.68 73.6079 566.528 79.7519 564.224 85.0639C561.92 90.3759 558.464 94.5359 553.856 97.5439C549.312 100.488 543.648 101.96 536.864 101.96C529.952 101.96 524.192 100.488 519.584 97.5439C515.04 94.5359 511.616 90.3759 509.312 85.0639C507.072 79.6879 505.952 73.5119 505.952 66.5359C505.952 59.5599 507.104 53.4479 509.408 48.1999C511.776 42.9519 515.264 38.8559 519.872 35.9119C524.544 32.9039 530.304 31.3999 537.152 31.3999C543.744 31.3999 549.28 32.8399 553.76 35.7199C558.304 38.5359 561.76 42.5679 564.128 47.8159C566.496 53.0639 567.68 59.3359 567.68 66.6319ZM511.808 66.6319C511.808 72.7119 512.704 78.0559 514.496 82.6639C516.288 87.2079 519.04 90.7599 522.752 93.3199C526.464 95.8159 531.168 97.0639 536.864 97.0639C542.624 97.0639 547.328 95.8159 550.976 93.3199C554.688 90.7599 557.408 87.2079 559.136 82.6639C560.928 78.1199 561.824 72.7759 561.824 66.6319C561.824 57.1599 559.744 49.7679 555.584 44.4559C551.488 39.0799 545.344 36.3919 537.152 36.3919C531.456 36.3919 526.72 37.6719 522.944 40.2319C519.168 42.7279 516.352 46.2479 514.496 50.7919C512.704 55.3359 511.808 60.6159 511.808 66.6319Z" fill="white"/>
<path d="M604.984 48.9679C611.512 48.9679 616.6 51.1759 620.248 55.5919C623.96 59.9439 625.816 66.4719 625.816 75.1759C625.816 83.8799 623.896 90.5359 620.056 95.1439C616.28 99.6879 611.096 101.96 604.504 101.96C599.96 101.96 596.312 101 593.56 99.0799C590.872 97.1599 588.888 94.8559 587.608 92.1679H587.224C587.288 93.8319 587.352 95.5919 587.416 97.4479C587.544 99.3039 587.608 101.064 587.608 102.728V123.656H582.136V49.9279H586.648L587.32 59.5279H587.608C588.888 56.7119 590.904 54.2479 593.656 52.1359C596.472 50.0239 600.248 48.9679 604.984 48.9679ZM604.216 53.7679C598.584 53.7679 594.424 55.5599 591.736 59.1439C589.048 62.6639 587.672 67.7839 587.608 74.5039V75.4639C587.608 82.7599 588.92 88.2319 591.544 91.8799C594.232 95.4639 598.328 97.2559 603.832 97.2559C609.08 97.2559 613.112 95.3039 615.928 91.3999C618.744 87.4959 620.152 82.0559 620.152 75.0799C620.152 68.2319 618.808 62.9839 616.12 59.3359C613.496 55.6239 609.528 53.7679 604.216 53.7679Z" fill="white"/>
<path d="M658.996 48.9679C663.348 48.9679 666.996 49.9919 669.94 52.0399C672.884 54.0239 675.092 56.7759 676.564 60.2959C678.036 63.8159 678.772 67.8479 678.772 72.3919V76.2319H642.292C642.292 82.9519 643.86 88.1359 646.996 91.7839C650.132 95.3679 654.644 97.1599 660.532 97.1599C663.732 97.1599 666.516 96.9039 668.884 96.3919C671.252 95.8799 673.844 94.9839 676.66 93.7039V98.6959C674.1 99.8479 671.572 100.68 669.076 101.192C666.58 101.704 663.668 101.96 660.34 101.96C652.724 101.96 646.868 99.6239 642.772 94.9519C638.676 90.2799 636.628 83.9119 636.628 75.8479C636.628 70.6639 637.492 66.0559 639.22 62.0239C641.012 57.9279 643.572 54.7279 646.9 52.4239C650.228 50.1199 654.26 48.9679 658.996 48.9679ZM658.9 53.5759C654.228 53.5759 650.42 55.1439 647.476 58.2799C644.596 61.4159 642.9 65.8639 642.388 71.6239H673.012C673.012 66.2479 671.86 61.8959 669.556 58.5679C667.316 55.2399 663.764 53.5759 658.9 53.5759Z" fill="white"/>
<path d="M715.421 48.9679C721.245 48.9679 725.693 50.4719 728.765 53.4799C731.837 56.4879 733.373 61.1919 733.373 67.5919V101H727.901V67.9759C727.901 63.1119 726.781 59.5279 724.541 57.2239C722.365 54.9199 719.133 53.7679 714.845 53.7679C703.581 53.7679 697.949 60.2319 697.949 73.1599V101H692.573V49.9279H696.989L697.757 58.7599H698.141C699.485 55.9439 701.597 53.6079 704.477 51.7519C707.421 49.8959 711.069 48.9679 715.421 48.9679Z" fill="white"/>
<path d="M526.688 163.456C543.136 163.456 551.36 169.92 551.36 182.848C551.36 189.44 549.216 194.624 544.928 198.4C540.704 202.112 534.112 203.968 525.152 203.968H515.168V232H509.6V163.456H526.688ZM526.112 168.352H515.168V199.168H524.576C531.232 199.168 536.384 198.016 540.032 195.712C543.744 193.344 545.6 189.152 545.6 183.136C545.6 178.016 544 174.272 540.8 171.904C537.664 169.536 532.768 168.352 526.112 168.352Z" fill="white"/>
<path d="M607.699 206.464C607.699 211.776 606.803 216.416 605.011 220.384C603.283 224.352 600.691 227.456 597.235 229.696C593.843 231.872 589.683 232.96 584.755 232.96C580.019 232.96 575.955 231.872 572.563 229.696C569.171 227.52 566.547 224.448 564.691 220.48C562.899 216.512 562.003 211.84 562.003 206.464C562.003 198.144 564.051 191.648 568.147 186.976C572.307 182.304 577.971 179.968 585.139 179.968C590.003 179.968 594.099 181.088 597.427 183.328C600.819 185.504 603.379 188.576 605.107 192.544C606.835 196.512 607.699 201.152 607.699 206.464ZM567.667 206.464C567.667 212.992 569.043 218.272 571.795 222.304C574.547 226.272 578.867 228.256 584.755 228.256C590.707 228.256 595.059 226.272 597.811 222.304C600.627 218.272 602.035 212.992 602.035 206.464C602.035 202.24 601.459 198.496 600.307 195.232C599.155 191.968 597.331 189.408 594.835 187.552C592.339 185.696 589.075 184.768 585.043 184.768C579.219 184.768 574.867 186.688 571.987 190.528C569.107 194.368 567.667 199.68 567.667 206.464Z" fill="white"/>
<path d="M627.076 232H621.604V159.04H627.076V232Z" fill="white"/>
<path d="M646.605 162.016C649.165 162.016 650.445 163.392 650.445 166.144C650.445 168.96 649.165 170.368 646.605 170.368C644.173 170.368 642.957 168.96 642.957 166.144C642.957 163.392 644.173 162.016 646.605 162.016ZM649.293 180.928V232H643.917V180.928H649.293Z" fill="white"/>
<path d="M686.677 232.96C679.189 232.96 673.397 230.688 669.301 226.144C665.269 221.536 663.253 215.072 663.253 206.752C663.253 201.056 664.277 196.224 666.325 192.256C668.373 188.224 671.221 185.184 674.869 183.136C678.581 181.024 682.869 179.968 687.733 179.968C690.229 179.968 692.533 180.192 694.645 180.64C696.821 181.088 698.741 181.696 700.405 182.464L698.869 187.264C695.285 185.664 691.573 184.864 687.733 184.864C681.717 184.864 677.077 186.816 673.813 190.72C670.549 194.624 668.917 199.936 668.917 206.656C668.917 213.056 670.357 218.24 673.237 222.208C676.117 226.176 680.565 228.16 686.581 228.16C689.141 228.16 691.541 227.904 693.781 227.392C696.021 226.88 698.037 226.208 699.829 225.376V230.272C698.165 231.104 696.245 231.744 694.069 232.192C691.893 232.704 689.429 232.96 686.677 232.96Z" fill="white"/>
<path d="M703.438 180.928H709.294L721.486 212.704C722.51 215.52 723.406 218.048 724.174 220.288C724.942 222.464 725.55 224.416 725.998 226.144H726.286C726.734 224.672 727.342 222.784 728.11 220.48C728.878 218.176 729.774 215.616 730.798 212.8L742.702 180.928H748.558L725.518 241.12C723.79 245.6 721.742 249.056 719.374 251.488C717.006 253.984 713.806 255.232 709.774 255.232C708.494 255.232 707.374 255.136 706.414 254.944C705.454 254.752 704.526 254.528 703.63 254.272V249.664C705.294 250.24 707.118 250.528 709.102 250.528C711.79 250.528 713.966 249.696 715.63 248.032C717.358 246.368 718.862 243.84 720.142 240.448L723.502 231.808L703.438 180.928Z" fill="white"/>
<path d="M538.784 298.488C533.152 298.488 528.32 299.768 524.288 302.328C520.256 304.824 517.152 308.344 514.976 312.888C512.864 317.368 511.808 322.616 511.808 328.632C511.808 334.776 512.768 340.12 514.688 344.664C516.672 349.208 519.584 352.728 523.424 355.224C527.264 357.72 532.064 358.968 537.824 358.968C541.152 358.968 544.192 358.712 546.944 358.2C549.76 357.688 552.416 357.048 554.912 356.28V361.08C552.544 361.976 549.92 362.68 547.04 363.192C544.224 363.704 540.96 363.96 537.248 363.96C530.336 363.96 524.544 362.488 519.872 359.544C515.264 356.6 511.776 352.472 509.408 347.16C507.104 341.848 505.952 335.64 505.952 328.536C505.952 321.752 507.232 315.736 509.792 310.488C512.416 305.176 516.16 301.016 521.024 298.008C525.952 295 531.872 293.496 538.784 293.496C545.504 293.496 551.52 294.776 556.832 297.336L554.624 302.136C549.632 299.704 544.352 298.488 538.784 298.488Z" fill="white"/>
<path d="M610.981 337.464C610.981 342.776 610.085 347.416 608.293 351.384C606.565 355.352 603.973 358.456 600.517 360.696C597.125 362.872 592.965 363.96 588.037 363.96C583.301 363.96 579.237 362.872 575.845 360.696C572.453 358.52 569.829 355.448 567.973 351.48C566.181 347.512 565.285 342.84 565.285 337.464C565.285 329.144 567.333 322.648 571.429 317.976C575.589 313.304 581.253 310.968 588.421 310.968C593.285 310.968 597.381 312.088 600.709 314.328C604.101 316.504 606.661 319.576 608.389 323.544C610.117 327.512 610.981 332.152 610.981 337.464ZM570.949 337.464C570.949 343.992 572.325 349.272 575.077 353.304C577.829 357.272 582.149 359.256 588.037 359.256C593.989 359.256 598.341 357.272 601.093 353.304C603.909 349.272 605.317 343.992 605.317 337.464C605.317 333.24 604.741 329.496 603.589 326.232C602.437 322.968 600.613 320.408 598.117 318.552C595.621 316.696 592.357 315.768 588.325 315.768C582.501 315.768 578.149 317.688 575.269 321.528C572.389 325.368 570.949 330.68 570.949 337.464Z" fill="white"/>
<path d="M647.734 310.968C653.558 310.968 658.006 312.472 661.078 315.48C664.15 318.488 665.686 323.192 665.686 329.592V363H660.214V329.976C660.214 325.112 659.094 321.528 656.854 319.224C654.678 316.92 651.446 315.768 647.158 315.768C635.894 315.768 630.262 322.232 630.262 335.16V363H624.886V311.928H629.302L630.07 320.76H630.454C631.798 317.944 633.91 315.608 636.79 313.752C639.734 311.896 643.382 310.968 647.734 310.968Z" fill="white"/>
<path d="M696.473 359.352C697.881 359.352 699.225 359.256 700.505 359.064C701.849 358.808 702.969 358.52 703.865 358.2V362.616C702.841 363 701.625 363.32 700.217 363.576C698.873 363.832 697.369 363.96 695.705 363.96C691.481 363.96 688.217 362.776 685.913 360.408C683.609 357.976 682.457 354.104 682.457 348.792V316.344H674.873V313.272L682.457 311.544L684.377 299.736H687.833V311.928H703.577V316.344H687.833V348.6C687.833 355.768 690.713 359.352 696.473 359.352Z" fill="white"/>
<path d="M732.746 311.064C738.506 311.064 742.794 312.472 745.61 315.288C748.426 318.104 749.834 322.552 749.834 328.632V363H745.706L744.65 354.36H744.458C742.666 357.24 740.426 359.576 737.738 361.368C735.05 363.096 731.338 363.96 726.602 363.96C721.738 363.96 717.866 362.744 714.986 360.312C712.17 357.88 710.762 354.328 710.762 349.656C710.762 344.6 712.81 340.728 716.906 338.04C721.066 335.352 727.146 333.848 735.146 333.528L744.458 333.048V329.496C744.458 324.44 743.434 320.888 741.386 318.84C739.402 316.728 736.458 315.672 732.554 315.672C729.93 315.672 727.402 316.024 724.97 316.728C722.538 317.368 720.106 318.328 717.674 319.608L715.946 315.192C718.314 313.976 720.938 312.984 723.818 312.216C726.698 311.448 729.674 311.064 732.746 311.064ZM744.458 337.272L735.818 337.656C729.29 337.912 724.426 339.032 721.226 341.016C718.026 342.936 716.426 345.848 716.426 349.752C716.426 352.888 717.418 355.288 719.402 356.952C721.386 358.552 724.106 359.352 727.562 359.352C732.874 359.352 736.97 357.848 739.85 354.84C742.794 351.832 744.33 347.608 744.458 342.168V337.272Z" fill="white"/>
<path d="M768.855 293.016C771.415 293.016 772.695 294.392 772.695 297.144C772.695 299.96 771.415 301.368 768.855 301.368C766.423 301.368 765.207 299.96 765.207 297.144C765.207 294.392 766.423 293.016 768.855 293.016ZM771.543 311.928V363H766.167V311.928H771.543Z" fill="white"/>
<path d="M811.327 310.968C817.151 310.968 821.599 312.472 824.671 315.48C827.743 318.488 829.279 323.192 829.279 329.592V363H823.807V329.976C823.807 325.112 822.687 321.528 820.447 319.224C818.271 316.92 815.039 315.768 810.751 315.768C799.487 315.768 793.855 322.232 793.855 335.16V363H788.479V311.928H792.895L793.663 320.76H794.047C795.391 317.944 797.503 315.608 800.383 313.752C803.327 311.896 806.975 310.968 811.327 310.968Z" fill="white"/>
<path d="M865.059 310.968C869.411 310.968 873.059 311.992 876.003 314.04C878.947 316.024 881.155 318.776 882.627 322.296C884.099 325.816 884.835 329.848 884.835 334.392V338.232H848.355C848.355 344.952 849.923 350.136 853.059 353.784C856.195 357.368 860.707 359.16 866.595 359.16C869.795 359.16 872.579 358.904 874.947 358.392C877.315 357.88 879.907 356.984 882.723 355.704V360.696C880.163 361.848 877.635 362.68 875.139 363.192C872.643 363.704 869.731 363.96 866.403 363.96C858.787 363.96 852.931 361.624 848.835 356.952C844.739 352.28 842.691 345.912 842.691 337.848C842.691 332.664 843.555 328.056 845.283 324.024C847.075 319.928 849.635 316.728 852.963 314.424C856.291 312.12 860.323 310.968 865.059 310.968ZM864.963 315.576C860.291 315.576 856.483 317.144 853.539 320.28C850.659 323.416 848.963 327.864 848.451 333.624H879.075C879.075 328.248 877.923 323.896 875.619 320.568C873.379 317.24 869.827 315.576 864.963 315.576Z" fill="white"/>
<path d="M919.564 311.064C922.252 311.064 924.556 311.352 926.476 311.928L925.708 316.92C924.684 316.664 923.66 316.472 922.636 316.344C921.612 316.216 920.524 316.152 919.372 316.152C914.636 316.152 910.892 317.88 908.14 321.336C905.452 324.728 904.108 329.272 904.108 334.968V363H898.636V311.928H903.244L903.82 321.528H904.108C905.388 318.648 907.308 316.184 909.868 314.136C912.492 312.088 915.724 311.064 919.564 311.064Z" fill="white"/>
<path d="M968.481 349.464C968.481 354.136 966.753 357.72 963.297 360.216C959.905 362.712 955.041 363.96 948.705 363.96C945.121 363.96 941.953 363.64 939.201 363C936.513 362.36 934.241 361.592 932.385 360.696V355.416C934.625 356.568 937.185 357.528 940.065 358.296C942.945 359 945.889 359.352 948.897 359.352C953.889 359.352 957.505 358.52 959.745 356.856C961.985 355.128 963.105 352.792 963.105 349.848C963.105 347.032 961.921 344.888 959.553 343.416C957.249 341.88 953.761 340.312 949.089 338.712C945.953 337.624 943.169 336.536 940.737 335.448C938.369 334.36 936.513 332.952 935.169 331.224C933.825 329.432 933.153 327.032 933.153 324.024C933.153 319.928 934.817 316.728 938.145 314.424C941.473 312.12 945.921 310.968 951.489 310.968C954.561 310.968 957.409 311.288 960.033 311.928C962.721 312.504 965.153 313.24 967.329 314.136L965.409 318.648C963.425 317.752 961.185 317.016 958.689 316.44C956.193 315.864 953.697 315.576 951.201 315.576C947.169 315.576 944.033 316.28 941.793 317.688C939.553 319.096 938.433 321.144 938.433 323.832C938.433 325.88 938.977 327.512 940.065 328.728C941.153 329.88 942.721 330.904 944.769 331.8C946.817 332.632 949.313 333.56 952.257 334.584C955.265 335.608 957.985 336.696 960.417 337.848C962.913 339 964.865 340.472 966.273 342.264C967.745 344.056 968.481 346.456 968.481 349.464Z" fill="white"/>
<defs>
<linearGradient id="paint0_linear_24_25" x1="328.799" y1="184.798" x2="351.598" y2="10.7998" gradientUnits="userSpaceOnUse">
<stop stop-color="#837BFF"/>
<stop offset="1" stop-color="#5371DD"/>
</linearGradient>
<linearGradient id="paint1_linear_24_25" x1="110.4" y1="191.998" x2="160.799" y2="122.398" gradientUnits="userSpaceOnUse">
<stop stop-color="#0086FF"/>
<stop offset="1" stop-color="#5371DD"/>
</linearGradient>
<linearGradient id="paint2_linear_24_25" x1="240.001" y1="185.351" x2="240.001" y2="388.379" gradientUnits="userSpaceOnUse">
<stop stop-color="#93EAFF"/>
<stop offset="1" stop-color="#0086FF"/>
</linearGradient>
</defs>
</svg>
