<svg viewBox="0 0 170 62" fill="none" xmlns="http://www.w3.org/2000/svg">
<g clip-path="url(#clip0_30_27)">
<path d="M52.5469 54.0201L76.5029 38.8732L80.8985 7.27881L52.5469 18.581V54.0201Z" fill="url(#paint0_linear_30_27)"/>
<path d="M24.5781 7.27881L28.9826 38.8769L52.5466 54.0201V18.581L24.5781 7.27881Z" fill="url(#paint1_linear_30_27)"/>
<path d="M52.5466 18.5816L24.5781 7.2794L52.5466 0L80.8983 7.2794L52.5466 18.5816Z" fill="#25225E"/>
<path d="M67.1869 43.8641C65.3349 45.8522 61.7215 45.6598 59.3439 43.6032C56.9606 41.5428 56.4855 38.5969 58.0853 36.8749C58.9252 36.0335 63.5438 31.8328 67.0788 27.0213C70.8119 22.3635 73.4613 17.0946 74.9399 17.6669C76.3824 18.1548 76.3868 24.8339 74.2011 30.9877C72.2689 37.2414 68.1465 42.9699 67.1869 43.8641Z" fill="#3553BF"/>
<path d="M62.8314 35.0833C64.6849 34.4713 74.3501 29.9446 74.5902 29.8145C74.4692 30.2064 74.3398 30.5978 74.2014 30.9872C72.2692 37.241 68.147 42.9694 67.1872 43.8634C65.3352 45.8516 61.7219 45.6592 59.3442 43.6026C58.4467 42.8267 57.82 41.9252 57.4727 41.0109C57.5639 40.567 57.7214 36.7703 62.8314 35.0833Z" fill="#213FAB"/>
<path d="M68.9206 49.1062C66.4206 50.1711 63.1971 48.5275 61.8596 45.6826C60.5183 42.8321 61.281 39.9468 63.4419 39.023C64.5511 38.5955 70.4778 36.6327 75.6624 33.6712C80.9655 30.931 85.5265 27.1922 86.645 28.3156C87.765 29.3474 85.0564 35.4526 80.5598 40.1884C76.2542 45.1183 70.1607 48.6788 68.9206 49.1062Z" fill="#5271E1"/>
<path d="M79.803 35.1167C79.5243 35.9055 79.2102 36.6975 78.8585 37.4774C76.418 43.5507 71.8379 48.9205 70.8079 49.7324C68.7985 51.5615 65.2134 51.0722 63.0131 48.8268C60.8074 46.5774 60.5766 43.602 62.3125 42.0177C62.4849 41.8714 78.884 35.562 79.803 35.1167Z" fill="#3553BF"/>
<path d="M66.9406 53.8262C64.2237 53.7847 61.9446 50.9744 61.8768 47.8316C61.8079 44.682 63.6762 42.3546 66.026 42.3874C67.2132 42.4468 73.4265 43.0584 79.3666 42.4563C85.3254 42.1043 91.0113 40.5383 91.5778 42.0194C92.1827 43.4169 87.229 47.8974 81.1973 50.4003C75.2619 53.1582 68.2474 53.9391 66.9406 53.8262Z" fill="#0086FF"/>
<path d="M39.4399 43.8641C41.292 45.8523 44.9052 45.6599 47.2829 43.6032C49.6662 41.5428 50.1412 38.5968 48.5415 36.8748C47.7016 36.0335 43.0829 31.8328 39.5479 27.0213C35.8147 22.3635 33.1655 17.0946 31.6869 17.6669C30.2444 18.1548 30.24 24.8339 32.4257 30.9878C34.3579 37.2413 38.4803 42.9699 39.4399 43.8641Z" fill="#3553BF"/>
<path d="M43.796 35.0833C41.9424 34.4713 32.2772 29.9446 32.0371 29.8145C32.158 30.2064 32.2875 30.5978 32.4258 30.9872C34.3581 37.241 38.4803 42.9694 39.4401 43.8634C41.2922 45.8516 44.9054 45.6592 47.283 43.6026C48.1805 42.8267 48.8072 41.9252 49.1545 41.0109C49.0634 40.567 48.9058 36.7703 43.796 35.0833Z" fill="#213FAB"/>
<path d="M37.7074 49.1063C40.2073 50.1711 43.4308 48.5276 44.7684 45.6827C46.1097 42.8322 45.347 39.9468 43.186 39.023C42.0769 38.5955 36.1502 36.6327 30.9657 33.6713C25.6625 30.931 21.1016 27.1922 19.983 28.3157C18.8629 29.3474 21.5717 35.4526 26.0681 40.1884C30.3737 45.1183 36.4675 48.6788 37.7074 49.1063Z" fill="#5271E1"/>
<path d="M26.6465 35.1167C26.9252 35.9054 27.2393 36.6974 27.591 37.4773C30.0316 43.5506 34.6116 48.9203 35.6418 49.7322C37.6512 51.5613 41.2362 51.0719 43.4365 48.8265C45.6422 46.5771 45.8729 43.6017 44.137 42.0174C43.9646 41.8711 27.5655 35.562 26.6465 35.1167Z" fill="#3553BF"/>
<path d="M39.6875 53.8264C42.4042 53.7847 44.6834 50.9744 44.7512 47.8317C44.8201 44.682 42.9519 42.3548 40.6021 42.3875C39.4148 42.447 33.2016 43.0586 27.2615 42.4563C21.3025 42.1041 15.6166 40.5385 15.0501 42.0195C14.4452 43.417 19.3988 47.8974 25.4304 50.4004C31.3663 53.1582 38.3809 53.9392 39.6875 53.8264Z" fill="#0086FF"/>
<path d="M72.4233 50.049C72.4233 60.6026 63.8677 62.0004 53.3142 62.0004C42.7606 62.0004 34.2051 60.6024 34.2051 50.049C34.2051 39.4955 42.7603 29.5894 53.314 29.5894C63.8677 29.5894 72.4233 39.4955 72.4233 50.049Z" fill="url(#paint2_linear_30_27)"/>
<path d="M49.6596 34.7304C48.0267 35.2933 46.5955 36.1669 45.4057 37.3268C44.9419 37.779 44.1994 37.7696 43.7471 37.3057C43.2949 36.8418 43.3045 36.0992 43.7683 35.6471C45.2077 34.2439 46.9326 33.1894 48.8947 32.5126C49.5071 32.3015 50.1757 32.6264 50.3858 33.239C50.6689 34.0633 49.8286 34.6721 49.6596 34.7304Z" fill="white"/>
<path d="M41.4282 47.6148C42.6215 47.6148 43.5889 46.6474 43.5889 45.4542C43.5889 44.2609 42.6215 43.2935 41.4282 43.2935C40.235 43.2935 39.2676 44.2609 39.2676 45.4542C39.2676 46.6474 40.235 47.6148 41.4282 47.6148Z" fill="#121212"/>
<path d="M65.4673 47.6147C66.6605 47.6147 67.6278 46.6473 67.6278 45.4541C67.6278 44.2608 66.6605 43.2935 65.4673 43.2935C64.274 43.2935 63.3066 44.2608 63.3066 45.4541C63.3066 46.6473 64.274 47.6147 65.4673 47.6147Z" fill="#121212"/>
<path d="M53.1021 54.2979C54.5722 54.2979 55.9332 54.0854 57.1851 53.6605C58.437 53.2355 59.5971 52.6095 60.6653 51.7827L61.4405 52.9196C60.3494 53.8155 59.0917 54.5334 57.6675 55.0731C56.2549 55.6244 54.733 55.9001 53.1021 55.9001C51.4712 55.9001 49.9436 55.6244 48.5194 55.0731C47.1067 54.5334 45.8548 53.8155 44.7637 52.9196L45.5389 51.7827C46.6072 52.6095 47.7672 53.2355 49.0191 53.6605C50.271 54.0854 51.6319 54.2979 53.1021 54.2979Z" fill="#121212"/>
<path d="M110.562 34.6076C110.562 36.2418 110.286 37.6692 109.735 38.8899C109.203 40.1106 108.406 41.0655 107.343 41.7546C106.299 42.424 105.019 42.7587 103.503 42.7587C102.046 42.7587 100.796 42.424 99.7525 41.7546C98.709 41.0852 97.9018 40.1401 97.3308 38.9194C96.7795 37.6987 96.5039 36.2615 96.5039 34.6076C96.5039 32.0481 97.1339 30.0497 98.394 28.6124C99.6738 27.1751 101.416 26.4565 103.621 26.4565C105.118 26.4565 106.378 26.801 107.402 27.4902C108.445 28.1596 109.233 29.1046 109.764 30.3253C110.296 31.546 110.562 32.9734 110.562 34.6076ZM98.2463 34.6076C98.2463 36.6158 98.6696 38.2402 99.5162 39.4805C100.363 40.7012 101.692 41.3116 103.503 41.3116C105.334 41.3116 106.673 40.7012 107.52 39.4805C108.386 38.2402 108.819 36.6158 108.819 34.6076C108.819 33.3082 108.642 32.1564 108.288 31.1522C107.933 30.1481 107.372 29.3606 106.604 28.7896C105.836 28.2186 104.832 27.9331 103.592 27.9331C101.8 27.9331 100.461 28.5238 99.5753 29.7051C98.6893 30.8864 98.2463 32.5206 98.2463 34.6076Z" fill="white"/>
<path d="M121.867 26.4565C123.876 26.4565 125.441 27.1358 126.563 28.4943C127.705 29.8331 128.276 31.8413 128.276 34.519C128.276 37.1967 127.685 39.2443 126.504 40.6619C125.342 42.0598 123.748 42.7587 121.72 42.7587C120.322 42.7587 119.199 42.4634 118.353 41.8727C117.526 41.2821 116.916 40.5733 116.522 39.7463H116.404C116.423 40.2583 116.443 40.7997 116.463 41.3707C116.502 41.9416 116.522 42.4831 116.522 42.995V49.4332H114.838V26.7518H116.226L116.433 29.7051H116.522C116.916 28.8388 117.536 28.0808 118.382 27.4311C119.249 26.7814 120.41 26.4565 121.867 26.4565ZM121.631 27.9331C119.898 27.9331 118.619 28.4844 117.792 29.587C116.965 30.6699 116.541 32.245 116.522 34.3123V34.6076C116.522 36.8521 116.925 38.5355 117.733 39.6577C118.56 40.7603 119.82 41.3116 121.513 41.3116C123.127 41.3116 124.368 40.7111 125.234 39.5101C126.1 38.3091 126.534 36.6355 126.534 34.4895C126.534 32.3828 126.12 30.7683 125.293 29.6461C124.486 28.5041 123.265 27.9331 121.631 27.9331Z" fill="white"/>
<path d="M138.808 42.7587C136.505 42.7587 134.723 42.0598 133.463 40.6619C132.223 39.2443 131.602 37.2557 131.602 34.6962C131.602 32.9439 131.917 31.4574 132.547 30.2367C133.177 28.9963 134.054 28.0611 135.176 27.4311C136.318 26.7814 137.637 26.4565 139.133 26.4565C139.901 26.4565 140.61 26.5254 141.26 26.6632C141.929 26.801 142.52 26.9881 143.032 27.2244L142.559 28.701C141.457 28.2088 140.315 27.9627 139.133 27.9627C137.283 27.9627 135.855 28.5632 134.851 29.7642C133.847 30.9652 133.345 32.5994 133.345 34.6667C133.345 36.6355 133.788 38.2303 134.674 39.451C135.56 40.6717 136.928 41.2821 138.779 41.2821C139.566 41.2821 140.305 41.2033 140.994 41.0458C141.683 40.8883 142.303 40.6816 142.854 40.4256V41.9318C142.343 42.1877 141.752 42.3846 141.082 42.5224C140.413 42.68 139.655 42.7587 138.808 42.7587Z" fill="white"/>
<path d="M153.002 26.4861C153.829 26.4861 154.537 26.5747 155.128 26.7519L154.892 28.2876C154.577 28.2089 154.262 28.1498 153.947 28.1104C153.632 28.0711 153.297 28.0514 152.943 28.0514C151.486 28.0514 150.334 28.583 149.487 29.6462C148.66 30.6897 148.247 32.0876 148.247 33.8398V42.4635H146.562V26.7519H147.981L148.158 29.7052H148.247C148.641 28.8192 149.231 28.0612 150.019 27.4312C150.826 26.8011 151.82 26.4861 153.002 26.4861Z" fill="white"/>
</g>
<defs>
<linearGradient id="paint0_linear_30_27" x1="67.4889" y1="29.5008" x2="71.1286" y2="1.72422" gradientUnits="userSpaceOnUse">
<stop stop-color="#837BFF"/>
<stop offset="1" stop-color="#5371DD"/>
</linearGradient>
<linearGradient id="paint1_linear_30_27" x1="32.6239" y1="30.6502" x2="40.6695" y2="19.5395" gradientUnits="userSpaceOnUse">
<stop stop-color="#0086FF"/>
<stop offset="1" stop-color="#5371DD"/>
</linearGradient>
<linearGradient id="paint2_linear_30_27" x1="53.3142" y1="29.5894" x2="53.3142" y2="62.0004" gradientUnits="userSpaceOnUse">
<stop stop-color="#93EAFF"/>
<stop offset="1" stop-color="#0086FF"/>
</linearGradient>
<clipPath id="clip0_30_27">
<rect width="170" height="62" fill="white"/>
</clipPath>
</defs>
</svg>
